# xmcd
#
# Track frame offsets: 
#        182
#        12795
#        27025
#        40145
#        52940
#        67817
#        79517
#        88900
#        102477
#        117587
#        130280
#        144070
#        157505
#        168912
#        187185
#        196017
#        207810
#        220110
#
# Disc length: 3116 seconds
#
# Revision: 4
# Processed by: cddbd v1.5.2PL0 Copyright (c) Steve Scherf et al.
# Submitted via: ExactAudioCopyFreeDBPlugin 1.0
#
DISCID=e00c2a12
DTITLE=Various Artist - The 60's Collection - 60's Soul
DYEAR=1900
DGENRE=Blues
TTITLE0=Mary Wells - My Guy
TTITLE1=The Tymes - People
TTITLE2=Ray Charles - Baby Won't You Please Come Home
TTITLE3=Fontella Bass - Rescue Me
TTITLE4=Percy Sledge - Warm And Tender Love
TTITLE5=The Drifters - Save The Last Dance For Me
TTITLE6=Gladys Knight - Every Beat Of My Heart
TTITLE7=Ben E. King - Spanish Harlem
TTITLE8=Martha Reeves - I Heard It Through The Grapevine
TTITLE9=Carla Thomas - B.A.B.Y.
TTITLE10=Eddie Floyd - Knock On Wood
TTITLE11=Ray Charles - Alone In The City
TTITLE12=Gladys Knight - How Do You Say Goodbye
TTITLE13=Ruby Curtis - Walk On By
TTITLE14=The Box Tops - The Letter
TTITLE15=Percy Sledge - (Sittin' On) The Dock Of The Bay
TTITLE16=The Drifters - Under The Boardwalk
TTITLE17=Jimmy Ruffin - What Becomes Of The Broken Hearted
EXTD=
EXTT0=
EXTT1=
EXTT2=
EXTT3=
EXTT4=
EXTT5=
EXTT6=
EXTT7=
EXTT8=
EXTT9=
EXTT10=
EXTT11=
EXTT12=
EXTT13=
EXTT14=
EXTT15=
EXTT16=
EXTT17=
PLAYORDER=
